<svg width="24" height="25" viewBox="0 0 24 25" fill="none" xmlns="http://www.w3.org/2000/svg">
<path d="M15.7804 17.5V16.5H12.9451V13.5H15.7804V15.5H17.6706V17.5H16.7255V19.5H14.8353V21.5H12.9451V18.5H14.8353V17.5H15.7804ZM20.5058 21.5H16.7255V19.5H18.6157V17.5H20.5058V21.5ZM3.49414 3.5H11.0549V11.5H3.49414V3.5ZM5.38433 5.5V9.5H9.16471V5.5H5.38433ZM12.9451 3.5H20.5058V11.5H12.9451V3.5ZM14.8353 5.5V9.5H18.6157V5.5H14.8353ZM3.49414 13.5H11.0549V21.5H3.49414V13.5ZM5.38433 15.5V19.5H9.16471V15.5H5.38433ZM17.6706 13.5H20.5058V15.5H17.6706V13.5ZM6.32942 6.5H8.21961V8.5H6.32942V6.5ZM6.32942 16.5H8.21961V18.5H6.32942V16.5ZM15.7804 6.5H17.6706V8.5H15.7804V6.5Z" fill="#FFB100"/>
</svg>
