<svg width="18" height="24" viewBox="0 0 18 24" fill="none" xmlns="http://www.w3.org/2000/svg">
<path d="M15 14.9467V17.3067C15 17.4756 14.94 17.6244 14.82 17.7533C14.7 17.8822 14.5556 17.9556 14.3867 17.9733C14.0933 17.9911 13.8533 18 13.6667 18C12.2178 18 10.8356 17.72 9.52 17.16C8.24 16.6178 7.10889 15.8556 6.12667 14.8733C5.14444 13.8911 4.38222 12.76 3.84 11.48C3.28 10.1644 3 8.78222 3 7.33333C3 7.14667 3.00889 6.90667 3.02667 6.61333C3.04444 6.44444 3.11778 6.3 3.24667 6.18C3.37556 6.06 3.52444 6 3.69333 6H6.05333C6.14222 6 6.21778 6.02889 6.28 6.08667C6.34222 6.14444 6.37778 6.21333 6.38667 6.29333L6.42667 6.66667C6.56 7.6 6.82667 8.48889 7.22667 9.33333C7.26222 9.40444 7.27111 9.47556 7.25333 9.54667C7.23556 9.61778 7.19556 9.67556 7.13333 9.72L5.69333 10.7467C6.12889 11.7689 6.74222 12.6756 7.53333 13.4667C8.32444 14.2578 9.23111 14.8711 10.2533 15.3067L11.28 13.8667C11.3244 13.8044 11.3822 13.7644 11.4533 13.7467C11.5244 13.7289 11.5956 13.7378 11.6667 13.7733C12.5111 14.1733 13.4 14.44 14.3333 14.5733L14.7067 14.6133C14.7867 14.6222 14.8556 14.6578 14.9133 14.72C14.9711 14.7822 15 14.8578 15 14.9467Z" fill="#FFB100"/>
</svg>
