<svg width="18" height="25" viewBox="0 0 18 25" fill="none" xmlns="http://www.w3.org/2000/svg">
<path d="M14.3383 19.0596H3.67165V17.7262C3.67165 17.1218 3.82054 16.564 4.11831 16.0529C4.41609 15.5418 4.82054 15.1373 5.33165 14.8396C5.84276 14.5418 6.40054 14.3929 7.00498 14.3929H11.005C11.6094 14.3929 12.1672 14.5418 12.6783 14.8396C13.1894 15.1373 13.5939 15.5418 13.8916 16.0529C14.1894 16.564 14.3383 17.1218 14.3383 17.7262V19.0596ZM9.00498 13.0596C8.28498 13.0596 7.61387 12.8773 6.99165 12.5129C6.3872 12.1573 5.9072 11.6773 5.55165 11.0729C5.1872 10.4507 5.00498 9.77957 5.00498 9.05957C5.00498 8.33957 5.1872 7.66846 5.55165 7.04624C5.9072 6.44179 6.3872 5.96179 6.99165 5.60624C7.61387 5.24179 8.28498 5.05957 9.00498 5.05957C9.72498 5.05957 10.3961 5.24179 11.0183 5.60624C11.6228 5.96179 12.1028 6.44179 12.4583 7.04624C12.8228 7.66846 13.005 8.33957 13.005 9.05957C13.005 9.77957 12.8228 10.4507 12.4583 11.0729C12.1028 11.6773 11.6228 12.1573 11.0183 12.5129C10.3961 12.8773 9.72498 13.0596 9.00498 13.0596Z" fill="#FFB100"/>
</svg>
