<svg width="43" height="43" viewBox="0 0 43 43" fill="none" xmlns="http://www.w3.org/2000/svg">
<path d="M15.8557 17.339L29.0122 18.0286L29.5888 16.056L17.8479 15.4407L17.9526 13.4435L30.9015 14.1221C31.1658 14.1359 31.3841 14.2442 31.5565 14.4468C31.7288 14.6494 31.8077 14.8906 31.793 15.1702C31.7888 15.2501 31.7721 15.3293 31.7427 15.4079L28.8598 25.2705C28.7976 25.4942 28.6779 25.6715 28.5007 25.8024C28.3235 25.9333 28.1279 25.9932 27.914 25.982L14.4932 25.2786C14.2289 25.2648 14.0106 25.1565 13.8383 24.9539C13.6659 24.7513 13.5871 24.5101 13.6017 24.2305L14.2298 12.247L12.3422 12.148L12.4468 10.1508L15.2782 10.2992C15.5425 10.313 15.7608 10.4213 15.9332 10.6239C16.1055 10.8265 16.1843 11.0677 16.1697 11.3473L15.8557 17.339ZM15.123 31.3199C14.7832 31.3021 14.4733 31.1957 14.1933 31.0008C13.9133 30.8058 13.6964 30.5508 13.5425 30.2357C13.3887 29.9205 13.3212 29.5832 13.34 29.2237C13.3589 28.8642 13.4613 28.5357 13.6472 28.2384C13.8331 27.9411 14.0755 27.7101 14.3744 27.5455C14.6732 27.3809 14.9926 27.3075 15.3323 27.3253C15.6721 27.3431 15.982 27.4495 16.262 27.6444C16.542 27.8394 16.7589 28.0944 16.9128 28.4095C17.0666 28.7247 17.1341 29.062 17.1152 29.4215C17.0964 29.781 16.994 30.1095 16.8081 30.4068C16.6222 30.7041 16.3798 30.9351 16.0809 31.0997C15.7821 31.2643 15.4627 31.3377 15.123 31.3199ZM26.4486 31.9134C26.1088 31.8956 25.7989 31.7892 25.5189 31.5943C25.2389 31.3994 25.022 31.1444 24.8681 30.8292C24.7143 30.5141 24.6468 30.1767 24.6656 29.8172C24.6845 29.4577 24.7869 29.1293 24.9728 28.8319C25.1587 28.5346 25.4011 28.3036 25.7 28.1391C25.9988 27.9745 26.3181 27.9011 26.6579 27.9189C26.9977 27.9367 27.3076 28.0431 27.5876 28.238C27.8676 28.4329 28.0845 28.6879 28.2383 29.0031C28.3922 29.3182 28.4597 29.6556 28.4408 30.0151C28.422 30.3746 28.3196 30.703 28.1337 31.0003C27.9477 31.2977 27.7053 31.5287 27.4065 31.6932C27.1076 31.8578 26.7883 31.9312 26.4486 31.9134Z" fill="white"/>
</svg>
