<svg width="18" height="24" viewBox="0 0 18 24" fill="none" xmlns="http://www.w3.org/2000/svg">
<path d="M3 6H15C15.1867 6 15.3444 6.06444 15.4733 6.19333C15.6022 6.32222 15.6667 6.48 15.6667 6.66667V17.3333C15.6667 17.52 15.6022 17.6778 15.4733 17.8067C15.3444 17.9356 15.1867 18 15 18H3C2.81334 18 2.65556 17.9356 2.52667 17.8067C2.39778 17.6778 2.33334 17.52 2.33334 17.3333V6.66667C2.33334 6.48 2.39778 6.32222 2.52667 6.19333C2.65556 6.06444 2.81334 6 3 6ZM9.04 11.7867L4.76 8.16L3.90667 9.17333L9.05334 13.5467L14.1067 9.17333L13.2267 8.16L9.04 11.7867Z" fill="#FFB100"/>
</svg>
