<svg width="18" height="24" viewBox="0 0 18 24" fill="none" xmlns="http://www.w3.org/2000/svg">
<path d="M10.1733 12.9998H11.84L12.5067 10.3332H10.1733V8.99984C10.1733 8.69761 10.1867 8.47984 10.2133 8.3465C10.2667 8.13317 10.3822 7.96873 10.56 7.85317C10.7733 7.72873 11.0889 7.6665 11.5067 7.6665H12.5067V5.4265C12.3556 5.40873 12.1156 5.39095 11.7867 5.37317C11.3778 5.3465 10.9822 5.33317 10.6 5.33317C9.98667 5.33317 9.44667 5.45539 8.98 5.69984C8.51333 5.94428 8.15556 6.29317 7.90667 6.7465C7.64 7.23539 7.50667 7.80873 7.50667 8.4665V10.3332H5.50667V12.9998H7.50667V18.6665H10.1733V12.9998Z" fill="#0C4A3E"/>
</svg>
