<svg width="18" height="24" viewBox="0 0 18 24" fill="none" xmlns="http://www.w3.org/2000/svg">
<path d="M5.31999 7.33309C5.3111 7.60864 5.2311 7.85753 5.07999 8.07976C4.92888 8.30198 4.72888 8.4642 4.47999 8.56642C4.2311 8.66864 3.97332 8.69309 3.70666 8.63976C3.43999 8.58642 3.2111 8.46198 3.01999 8.26642C2.82888 8.07087 2.7111 7.83976 2.66666 7.57309C2.62221 7.30642 2.65332 7.04864 2.75999 6.79976C2.86666 6.55087 3.03555 6.35309 3.26666 6.20642C3.49777 6.05976 3.7511 5.99087 4.02666 5.99976C4.38221 6.00864 4.68666 6.14198 4.93999 6.39976C5.19332 6.65753 5.31999 6.96864 5.31999 7.33309ZM5.35999 9.65309H2.69332V17.9998H5.35999V9.65309ZM9.57332 9.65309H6.91999V17.9998H9.54666V13.6264C9.54666 13.1553 9.65332 12.7553 9.86666 12.4264C10.0711 12.1242 10.3333 11.9153 10.6533 11.7998C10.9733 11.6842 11.2933 11.6753 11.6133 11.7731C11.9333 11.8709 12.1911 12.0664 12.3867 12.3598C12.6089 12.6975 12.72 13.1198 12.72 13.6264V17.9998H15.36V12.7198C15.36 11.9375 15.1911 11.2753 14.8533 10.7331C14.56 10.262 14.1511 9.90642 13.6267 9.66642C13.1467 9.46198 12.6267 9.37309 12.0667 9.39976C11.5244 9.42642 11.0222 9.56198 10.56 9.80642C10.0978 10.0509 9.75999 10.3731 9.54666 10.7731L9.57332 9.65309Z" fill="#0C4A3E"/>
</svg>
