<svg width="18" height="24" viewBox="0 0 18 24" fill="none" xmlns="http://www.w3.org/2000/svg">
<path d="M9.68001 5.33317C10.3556 5.33317 10.8445 5.33762 11.1467 5.3465L11.7467 5.37317C12.3689 5.39984 12.9067 5.50206 13.36 5.67984C13.8133 5.85761 14.2089 6.11539 14.5467 6.45317C14.8845 6.79095 15.1422 7.1865 15.32 7.63984C15.4978 8.09317 15.6 8.63095 15.6267 9.25317L15.6533 9.85317C15.6622 10.1643 15.6667 10.6532 15.6667 11.3198V12.6798C15.6667 13.3554 15.6622 13.8443 15.6533 14.1465L15.6267 14.7465C15.6 15.3687 15.4978 15.9065 15.32 16.3598C15.1422 16.8132 14.8845 17.2087 14.5467 17.5465C14.2089 17.8843 13.8133 18.1421 13.36 18.3198C12.9067 18.4976 12.3689 18.5998 11.7467 18.6265L11.1467 18.6532C10.8356 18.6621 10.3467 18.6665 9.68001 18.6665H8.32001C7.64445 18.6665 7.15557 18.6621 6.85334 18.6532L6.25334 18.6265C5.63112 18.5998 5.09334 18.4976 4.64001 18.3198C4.18668 18.1421 3.79112 17.8843 3.45334 17.5465C3.11557 17.2087 2.85779 16.8132 2.68001 16.3598C2.50223 15.9065 2.40001 15.3687 2.37334 14.7465L2.34668 14.1465C2.33779 13.8354 2.33334 13.3465 2.33334 12.6798V11.3198C2.33334 10.6443 2.33779 10.1554 2.34668 9.85317L2.37334 9.25317C2.40001 8.63095 2.50223 8.09317 2.68001 7.63984C2.85779 7.1865 3.11557 6.79095 3.45334 6.45317C3.79112 6.11539 4.18668 5.85761 4.64001 5.67984C5.09334 5.50206 5.63112 5.39984 6.25334 5.37317L6.85334 5.3465C7.16445 5.33762 7.65334 5.33317 8.32001 5.33317H9.68001ZM9.00001 8.6665C8.39557 8.6665 7.83779 8.81539 7.32668 9.11317C6.81557 9.41095 6.41112 9.81539 6.11334 10.3265C5.81557 10.8376 5.66668 11.3954 5.66668 11.9998C5.66668 12.6043 5.81557 13.1621 6.11334 13.6732C6.41112 14.1843 6.81557 14.5887 7.32668 14.8865C7.83779 15.1843 8.39557 15.3332 9.00001 15.3332C9.60445 15.3332 10.1622 15.1843 10.6733 14.8865C11.1845 14.5887 11.5889 14.1843 11.8867 13.6732C12.1845 13.1621 12.3333 12.6043 12.3333 11.9998C12.3333 11.3954 12.1845 10.8376 11.8867 10.3265C11.5889 9.81539 11.1845 9.41095 10.6733 9.11317C10.1622 8.81539 9.60445 8.6665 9.00001 8.6665ZM9.00001 9.99984C9.36445 9.99984 9.70001 10.0887 10.0067 10.2665C10.3133 10.4443 10.5556 10.6865 10.7333 10.9932C10.9111 11.2998 11 11.6354 11 11.9998C11 12.3643 10.9111 12.6998 10.7333 13.0065C10.5556 13.3132 10.3133 13.5554 10.0067 13.7332C9.70001 13.9109 9.36445 13.9998 9.00001 13.9998C8.63557 13.9998 8.30001 13.9109 7.99334 13.7332C7.68668 13.5554 7.44445 13.3132 7.26668 13.0065C7.0889 12.6998 7.00001 12.3643 7.00001 11.9998C7.00001 11.6354 7.0889 11.2998 7.26668 10.9932C7.44445 10.6865 7.68668 10.4443 7.99334 10.2665C8.30001 10.0887 8.63557 9.99984 9.00001 9.99984ZM12.4933 7.6665C12.2711 7.6665 12.0778 7.74873 11.9133 7.91317C11.7489 8.07761 11.6667 8.27317 11.6667 8.49984C11.6667 8.7265 11.7489 8.92206 11.9133 9.0865C12.0778 9.25095 12.2733 9.33317 12.5 9.33317C12.7267 9.33317 12.9222 9.25095 13.0867 9.0865C13.2511 8.92206 13.3333 8.7265 13.3333 8.49984C13.3333 8.27317 13.2511 8.07761 13.0867 7.91317C12.9222 7.74873 12.7245 7.6665 12.4933 7.6665Z" fill="#0C4A3E"/>
</svg>
