<svg width="24" height="25" viewBox="0 0 24 25" fill="none" xmlns="http://www.w3.org/2000/svg">
<path d="M20.5058 13.74V20.5H21.4509V22.5H2.54905V20.5H3.49415V13.74C2.91449 13.3267 2.45454 12.7933 2.11431 12.14C1.77408 11.4867 1.60396 10.7733 1.60396 10C1.60396 9.16 1.80558 8.39333 2.20882 7.7L4.76057 3C4.84878 2.84 4.96534 2.71667 5.11026 2.63C5.25517 2.54333 5.41584 2.5 5.59226 2.5H18.4077C18.5842 2.5 18.7448 2.54333 18.8897 2.63C19.0347 2.71667 19.1512 2.84 19.2394 3L21.7912 7.68C22.1944 8.38667 22.396 9.16 22.396 10C22.396 10.7733 22.2259 11.4867 21.8857 12.14C21.5455 12.7933 21.0855 13.3267 20.5058 13.74ZM18.6157 14.48C18.4644 14.4933 18.3069 14.5 18.1431 14.5C17.5509 14.5 16.9901 14.38 16.4608 14.14C15.9316 13.9 15.4716 13.56 15.081 13.12C14.6778 13.56 14.2115 13.9 13.6823 14.14C13.153 14.38 12.5923 14.5 12 14.5C11.4077 14.5 10.847 14.38 10.3177 14.14C9.78848 13.9 9.32853 13.56 8.93789 13.12C8.53465 13.56 8.0684 13.9 7.53915 14.14C7.0099 14.38 6.44914 14.5 5.85688 14.5C5.69307 14.5 5.53555 14.4933 5.38434 14.48V20.5H18.6157V14.48ZM6.12151 4.5L3.83438 8.72C3.60756 9.10667 3.49415 9.53 3.49415 9.99C3.49415 10.45 3.60126 10.87 3.81548 11.25C4.0297 11.63 4.31638 11.9333 4.67552 12.16C5.03465 12.3867 5.42844 12.5 5.85688 12.5C6.34833 12.5 6.79253 12.3567 7.18947 12.07C7.58641 11.7833 7.87309 11.4 8.0495 10.92C8.15031 10.6533 8.32043 10.47 8.55985 10.37C8.79928 10.27 9.04185 10.27 9.28758 10.37C9.5333 10.47 9.70657 10.6533 9.80738 10.92C9.9838 11.4 10.2705 11.7833 10.6674 12.07C11.0644 12.3567 11.5085 12.5 12 12.5C12.4914 12.5 12.9356 12.3567 13.3326 12.07C13.7295 11.7833 14.0162 11.4 14.1926 10.92C14.2934 10.6533 14.4635 10.47 14.703 10.37C14.9424 10.27 15.185 10.27 15.4307 10.37C15.6764 10.47 15.8497 10.6533 15.9505 10.92C16.1269 11.4 16.4136 11.7833 16.8105 12.07C17.2075 12.3567 17.6517 12.5 18.1431 12.5C18.5716 12.5 18.9653 12.3867 19.3245 12.16C19.6836 11.9333 19.9703 11.63 20.1845 11.25C20.3987 10.87 20.5058 10.45 20.5058 9.99C20.5058 9.53 20.3924 9.1 20.1656 8.7L17.8785 4.5H6.12151Z" fill="#FFB100"/>
</svg>
