<svg width="18" height="24" viewBox="0 0 18 24" fill="none" xmlns="http://www.w3.org/2000/svg">
<path d="M13.24 15L9 19.24L4.76 15C3.98667 14.2355 3.46667 13.3289 3.2 12.28C2.93333 11.2667 2.93333 10.2533 3.2 9.23999C3.46667 8.1911 3.98444 7.28221 4.75333 6.51332C5.52222 5.74443 6.43111 5.22221 7.48 4.94666C8.49333 4.68888 9.50667 4.68888 10.52 4.94666C11.5689 5.22221 12.4778 5.74443 13.2467 6.51332C14.0156 7.28221 14.5333 8.1911 14.8 9.23999C15.0667 10.2533 15.0667 11.2667 14.8 12.28C14.5333 13.3289 14.0133 14.2355 13.24 15ZM9 13.4267C9.48 13.4267 9.92444 13.3067 10.3333 13.0667C10.7422 12.8267 11.0667 12.5022 11.3067 12.0933C11.5467 11.6844 11.6667 11.2378 11.6667 10.7533C11.6667 10.2689 11.5467 9.82443 11.3067 9.41999C11.0667 9.01555 10.7422 8.69332 10.3333 8.45332C9.92444 8.21332 9.48 8.09332 9 8.09332C8.52 8.09332 8.07556 8.21332 7.66667 8.45332C7.25778 8.69332 6.93333 9.01555 6.69333 9.41999C6.45333 9.82443 6.33333 10.2689 6.33333 10.7533C6.33333 11.2378 6.45333 11.6844 6.69333 12.0933C6.93333 12.5022 7.25778 12.8267 7.66667 13.0667C8.07556 13.3067 8.52 13.4267 9 13.4267ZM9 12.0933C8.76 12.0933 8.53778 12.0333 8.33333 11.9133C8.12889 11.7933 7.96667 11.6311 7.84667 11.4267C7.72667 11.2222 7.66667 11 7.66667 10.76C7.66667 10.52 7.72667 10.2978 7.84667 10.0933C7.96667 9.88888 8.12889 9.72666 8.33333 9.60666C8.53778 9.48666 8.76 9.42666 9 9.42666C9.24 9.42666 9.46222 9.48666 9.66667 9.60666C9.87111 9.72666 10.0333 9.88888 10.1533 10.0933C10.2733 10.2978 10.3333 10.52 10.3333 10.76C10.3333 11 10.2733 11.2222 10.1533 11.4267C10.0333 11.6311 9.87111 11.7933 9.66667 11.9133C9.46222 12.0333 9.24 12.0933 9 12.0933Z" fill="#FFB100"/>
</svg>
