<svg width="25" height="25" viewBox="0 0 25 25" fill="none" xmlns="http://www.w3.org/2000/svg">
<path d="M12.6601 22.5C11.3747 22.5 10.1461 22.24 8.97418 21.72C7.85267 21.2133 6.85402 20.4967 5.97823 19.57C5.10245 18.6433 4.42513 17.5867 3.94628 16.4C3.45483 15.16 3.20911 13.86 3.20911 12.5C3.20911 11.14 3.45483 9.84 3.94628 8.6C4.42513 7.41333 5.10245 6.35667 5.97823 5.43C6.85402 4.50333 7.85267 3.78667 8.97418 3.28C10.1461 2.76 11.3747 2.5 12.6601 2.5C13.9454 2.5 15.174 2.76 16.3459 3.28C17.4674 3.78667 18.4661 4.50333 19.3419 5.43C20.2177 6.35667 20.895 7.41333 21.3738 8.6C21.8653 9.84 22.111 11.14 22.111 12.5C22.111 13.86 21.8653 15.16 21.3738 16.4C20.895 17.5867 20.2177 18.6433 19.3419 19.57C18.4661 20.4967 17.4674 21.2133 16.3459 21.72C15.174 22.24 13.9454 22.5 12.6601 22.5ZM10.5052 20.16C9.56014 18.0533 9.02459 15.8333 8.89858 13.5H5.156C5.28201 14.54 5.58759 15.5133 6.07274 16.42C6.55789 17.3267 7.18165 18.1033 7.94403 18.75C8.70641 19.3967 9.56014 19.8667 10.5052 20.16ZM10.8077 13.5C10.9463 15.9 11.5637 18.1533 12.6601 20.26C13.7564 18.1533 14.3738 15.9 14.5124 13.5H10.8077ZM20.1641 13.5H16.4215C16.2955 15.8333 15.7663 18.0533 14.8338 20.16C15.7663 19.8667 16.6137 19.3967 17.3761 18.75C18.1385 18.1033 18.7622 17.3267 19.2474 16.42C19.7325 15.5133 20.0381 14.54 20.1641 13.5ZM5.156 11.5H8.89858C9.02459 9.16667 9.56014 6.94667 10.5052 4.84C9.56014 5.13333 8.70641 5.60333 7.94403 6.25C7.18165 6.89667 6.55789 7.67333 6.07274 8.58C5.58759 9.48667 5.28201 10.46 5.156 11.5ZM10.8077 11.5H14.5124C14.3738 9.1 13.7564 6.84667 12.6601 4.74C11.5637 6.84667 10.9463 9.1 10.8077 11.5ZM14.8338 4.84C15.7663 6.94667 16.2955 9.16667 16.4215 11.5H20.1641C20.0381 10.46 19.7325 9.48667 19.2474 8.58C18.7622 7.67333 18.1385 6.89667 17.3761 6.25C16.6137 5.60333 15.7663 5.13333 14.8338 4.84Z" fill="#FFB100"/>
</svg>
