<svg width="24" height="25" viewBox="0 0 24 25" fill="none" xmlns="http://www.w3.org/2000/svg">
<path d="M11.0549 7.5H12.9451V17.5H11.0549V7.5ZM14.8353 11.5H16.7255V17.5H14.8353V11.5ZM7.27453 13.5H9.16472V17.5H7.27453V13.5ZM14.8353 4.5H5.38434V20.5H18.6157V8.5H14.8353V4.5ZM3.49416 3.5C3.49416 3.22 3.58552 2.98333 3.76823 2.79C3.95095 2.59667 4.17462 2.5 4.43925 2.5H15.7804L20.5059 7.5V21.5C20.5059 21.7667 20.4145 22 20.2318 22.2C20.0491 22.4 19.8254 22.5 19.5608 22.5H4.43925C4.17462 22.5 3.95095 22.4033 3.76823 22.21C3.58552 22.0167 3.49416 21.78 3.49416 21.5V3.5Z" fill="#FFB100"/>
</svg>
