<svg width="25" height="25" viewBox="0 0 25 25" fill="none" xmlns="http://www.w3.org/2000/svg">
<path d="M19.834 8.5H20.8358C21.1761 8.5 21.4911 8.59 21.7809 8.77C22.0708 8.95 22.3007 9.19333 22.4709 9.5C22.641 9.80667 22.726 10.14 22.726 10.5V14.5C22.726 14.86 22.641 15.1933 22.4709 15.5C22.3007 15.8067 22.0708 16.05 21.7809 16.23C21.4911 16.41 21.1761 16.5 20.8358 16.5H19.834C19.6828 17.8067 19.2544 18.9933 18.5487 20.06C17.8431 21.1267 16.9547 21.96 15.8836 22.56C14.7746 23.1867 13.5901 23.5 12.33 23.5V21.5C13.3507 21.5 14.3021 21.2267 15.1842 20.68C16.0411 20.1467 16.7215 19.4267 17.2256 18.52C17.7422 17.5867 18.0006 16.58 18.0006 15.5V9.5C18.0006 8.42 17.7422 7.41333 17.2256 6.48C16.7215 5.57333 16.0411 4.85333 15.1842 4.32C14.3021 3.77333 13.3507 3.5 12.33 3.5C11.3093 3.5 10.3579 3.77333 9.47581 4.32C8.61893 4.85333 7.93846 5.57333 7.43441 6.48C6.91776 7.41333 6.65943 8.42 6.65943 9.5V16.5H3.82415C3.48391 16.5 3.16888 16.41 2.87905 16.23C2.58923 16.05 2.35925 15.8067 2.18914 15.5C2.01902 15.1933 1.93396 14.86 1.93396 14.5V10.5C1.93396 10.14 2.01902 9.80667 2.18914 9.5C2.35925 9.19333 2.58923 8.95 2.87905 8.77C3.16888 8.59 3.48391 8.5 3.82415 8.5H4.82595C4.97716 7.19333 5.40561 6.00667 6.11128 4.94C6.81695 3.87333 7.70534 3.04 8.77644 2.44C9.88535 1.81333 11.0699 1.5 12.33 1.5C13.5901 1.5 14.7746 1.81333 15.8836 2.44C16.9547 3.04 17.8431 3.87333 18.5487 4.94C19.2544 6.00667 19.6828 7.19333 19.834 8.5ZM3.82415 10.5V14.5H4.76924V10.5H3.82415ZM19.8908 10.5V14.5H20.8358V10.5H19.8908ZM8.3228 16.28L9.3246 14.58C10.2445 15.1933 11.2463 15.5 12.33 15.5C13.4137 15.5 14.4155 15.1933 15.3354 14.58L16.3372 16.28C15.7449 16.68 15.1086 16.9833 14.4281 17.19C13.7476 17.3967 13.0483 17.5 12.33 17.5C11.6117 17.5 10.9124 17.3967 10.2319 17.19C9.55142 16.9833 8.91506 16.68 8.3228 16.28Z" fill="#FFB100"/>
</svg>
