<svg width="25" height="25" viewBox="0 0 25 25" fill="none" xmlns="http://www.w3.org/2000/svg">
<path d="M11.1959 14.74V16.74C10.1752 16.74 9.22379 17.0133 8.3417 17.56C7.48482 18.0933 6.80435 18.8133 6.3003 19.72C5.78365 20.6533 5.52532 21.6667 5.52532 22.76H3.63513C3.63513 21.3067 3.98167 19.96 4.67474 18.72C5.3426 17.5067 6.24359 16.5467 7.37771 15.84C8.54962 15.1067 9.82235 14.74 11.1959 14.74ZM11.1959 13.74C10.1752 13.74 9.22379 13.4733 8.3417 12.94C7.48482 12.4067 6.80435 11.6867 6.3003 10.78C5.78365 9.84666 5.52532 8.83666 5.52532 7.74999C5.52532 6.66332 5.78365 5.65332 6.3003 4.71999C6.80435 3.81332 7.48482 3.09332 8.3417 2.55999C9.22379 2.01332 10.1783 1.73999 11.2053 1.73999C12.2323 1.73999 13.1869 2.01332 14.069 2.55999C14.9133 3.09332 15.5874 3.81332 16.0915 4.71999C16.6081 5.65332 16.8665 6.66332 16.8665 7.74999C16.8665 8.83666 16.6081 9.84666 16.0915 10.78C15.5874 11.6867 14.9133 12.4067 14.069 12.94C13.1869 13.4733 12.2292 13.74 11.1959 13.74ZM11.1959 11.74C11.8764 11.74 12.5064 11.5633 13.0861 11.21C13.6657 10.8567 14.1257 10.3733 14.4659 9.75999C14.8062 9.14666 14.9763 8.47666 14.9763 7.74999C14.9763 7.02332 14.8062 6.35332 14.4659 5.73999C14.1257 5.12666 13.6657 4.63999 13.0861 4.27999C12.5064 3.91999 11.8764 3.73999 11.1959 3.73999C10.5154 3.73999 9.88536 3.91999 9.3057 4.27999C8.72604 4.63999 8.2661 5.12666 7.92586 5.73999C7.58563 6.35332 7.41551 7.02332 7.41551 7.74999C7.41551 8.47666 7.58563 9.14666 7.92586 9.75999C8.2661 10.3733 8.72604 10.8567 9.3057 11.21C9.88536 11.5633 10.5154 11.74 11.1959 11.74ZM13.6531 19.56C13.5901 19.2933 13.5586 19.0233 13.5586 18.75C13.5586 18.4767 13.5901 18.2067 13.6531 17.94L12.708 17.36L13.6531 15.64L14.5982 16.2C14.9763 15.8267 15.4173 15.56 15.9214 15.4V14.24H17.8116V15.4C18.3156 15.56 18.7566 15.8267 19.1347 16.2L20.0798 15.64L21.0249 17.36L20.0798 17.94C20.1428 18.2067 20.1743 18.4767 20.1743 18.75C20.1743 19.0233 20.1428 19.2933 20.0798 19.56L21.0249 20.14L20.0798 21.86L19.1347 21.3C18.7566 21.6733 18.3156 21.94 17.8116 22.1V23.24H15.9214V22.1C15.4173 21.94 14.9763 21.6733 14.5982 21.3L13.6531 21.86L12.708 20.14L13.6531 19.56ZM16.8665 20.24C17.2571 20.24 17.591 20.0967 17.8683 19.81C18.1455 19.5233 18.2841 19.17 18.2841 18.75C18.2841 18.33 18.1455 17.9767 17.8683 17.69C17.591 17.4033 17.2571 17.2567 16.8665 17.25C16.4758 17.2433 16.1419 17.3867 15.8647 17.68C15.5874 17.9733 15.4488 18.33 15.4488 18.75C15.4488 19.17 15.5874 19.5267 15.8647 19.82C16.1419 20.1133 16.4758 20.26 16.8665 20.26V20.24Z" fill="#FFB100"/>
</svg>
